<?xml version="1.0" encoding="utf-8"?>
<!-- Generator: Adobe Illustrator 21.1.0, SVG Export Plug-In . SVG Version: 6.00 Build 0)  -->
<svg version="1.1" id="Layer_1" xmlns="http://www.w3.org/2000/svg" xmlns:xlink="http://www.w3.org/1999/xlink" x="0px" y="0px"
	 viewBox="0 0 400 400" style="enable-background:new 0 0 400 400;" xml:space="preserve">
<style type="text/css">
	.st0{fill:#111111;}
</style>
<g>
	<g>
		<path class="st0" d="M353.3,112.3H46.7c-6.9,0-12.5-5.6-12.5-12.5s5.6-12.5,12.5-12.5h306.7c6.9,0,12.5,5.6,12.5,12.5
			S360.2,112.3,353.3,112.3z"/>
	</g>
	<g>
		<path class="st0" d="M353.3,210.4H46.7c-6.9,0-12.5-5.6-12.5-12.5s5.6-12.5,12.5-12.5h306.7c6.9,0,12.5,5.6,12.5,12.5
			S360.2,210.4,353.3,210.4z"/>
	</g>
	<g>
		<path class="st0" d="M353.3,312.7H46.7c-6.9,0-12.5-5.6-12.5-12.5s5.6-12.5,12.5-12.5h306.7c6.9,0,12.5,5.6,12.5,12.5
			S360.2,312.7,353.3,312.7z"/>
	</g>
</g>
</svg>
